<?xml version="1.0" standalone="no"?>
<!DOCTYPE svg PUBLIC "-//W3C//DTD SVG 20010904//EN"
 "http://www.w3.org/TR/2001/REC-SVG-20010904/DTD/svg10.dtd">
<svg version="1.0" xmlns="http://www.w3.org/2000/svg"
 width="284.000000pt" height="284.000000pt" viewBox="0 0 284.000000 284.000000"
 preserveAspectRatio="xMidYMid meet">
<metadata>
Created by potrace 1.14, written by Peter Selinger 2001-2017
</metadata>
<g transform="translate(0.000000,284.000000) scale(0.100000,-0.100000)"
fill="#000000" stroke="none">
<path d="M858 2450 c-345 -173 -562 -288 -572 -302 -14 -20 -16 -98 -16 -703
0 -605 2 -683 16 -703 16 -23 1120 -582 1149 -582 29 0 1133 559 1149 582 14
20 16 98 16 703 0 605 -2 683 -16 703 -17 25 -1121 582 -1151 581 -10 0 -268
-126 -575 -279z m1077 -147 l495 -248 0 -610 0 -610 -497 -249 -498 -248 -497
248 -498 249 0 610 0 610 493 247 c270 136 495 247 499 247 5 1 231 -110 503
-246z"/>
<path d="M1460 2037 l0 -123 71 -11 c149 -23 308 -136 371 -263 31 -63 58
-159 58 -207 l0 -33 126 0 127 0 -7 70 c-29 287 -207 526 -473 635 -63 25
-194 55 -243 55 l-30 0 0 -123z"/>
<path d="M640 1480 c0 -17 7 -65 16 -108 70 -338 342 -580 684 -608 89 -8 129
7 160 59 53 86 -12 187 -120 187 -228 0 -446 194 -483 429 l-11 71 -123 0
-123 0 0 -30z"/>
</g>
</svg>
